<svg version="1" xmlns="http://www.w3.org/2000/svg" width="933.333" height="933.333" viewBox="0 0 700.000000 700.000000"><path d="M92.3 15.5C69.7 19.6 49 31.9 34.9 49.8c-7.2 9-15.2 24.9-18.2 36.2l-2.2 8.5v511l2.3 8.5c9.2 34.3 34.8 59.8 69.2 69.2l8.5 2.3h511l8.5-2.3c34.5-9.4 59.7-34.6 69.2-69.2l2.3-8.5v-511l-2.3-8.5c-9.2-34.1-34.4-59.4-68.9-69.3l-7.8-2.2-253.5-.2c-204.8-.1-254.9.1-260.7 1.2zM594.5 19c13.7 1.2 23.4 3.9 35 9.5 17.7 8.6 33.1 24 42 42 5.6 11.5 8.3 21.2 9.5 35 1.3 14.9 1.3 474.1 0 489-2.2 24.3-10.6 42.8-27.2 59.3-11.9 12-24.9 19.6-41.5 24.4l-7.8 2.3h-509l-7.8-2.3c-16.5-4.7-29.5-12.4-41.5-24.2-12.4-12.4-20-25.8-25.1-44l-2.6-9.5v-501l2.8-10C32.1 50 64.3 22.6 103.9 19c13.1-1.1 477.5-1.2 490.6 0z"/><path d="M108 26c-21.3 2.1-40.8 11.4-56 26.9-12.2 12.3-19.7 25.8-24.3 43.9l-2.2 8.7v489l2.2 8.8c9.2 36 34.6 60.9 70.8 69.3 7.7 1.8 17.3 1.9 251.5 1.9s243.8-.1 251.5-1.9c36.1-8.4 61.6-33.4 70.8-69.3l2.2-8.8v-489l-2.2-8.8c-4.6-17.9-12.5-32.2-24.7-44.3-12-12-24.9-19.3-42.6-24.3l-9.5-2.6-240-.1c-132-.1-243.4.2-247.5.6zm371.9 100c29.4 1.5 34.9 2.8 57.3 14.1 19.1 9.6 29 17.3 33.5 26.3 6.2 12.3 28.2 71.4 33.9 91.1l3.5 12 4 71.5c2.2 39.3 3.7 73.3 3.4 75.5-1.6 10.8-7.3 23.1-16.6 35.5-11.1 15.1-32.3 34.5-44.9 41.1l-4.5 2.3-53.5.7c-29.4.4-59.8 1-67.5 1.2-15.5.5-30.1-.6-38.5-2.9-3-.8-11-4.7-17.6-8.5-32.8-18.7-111.9-53.8-134.3-59.4-22.4-5.7-70.4-12.1-131.1-17.6-15.6-1.4-25.3-2.7-26.8-3.6-2.2-1.3-2.2-1.6-2.2-23.2 0-24.4-.3-23.3 7.5-26.3 2.2-.9 10.6-3.4 18.7-5.7 49.9-13.9 80-31.7 119.6-70.5 31-30.3 60.4-68.4 81.3-105.1 6.2-10.9 8.9-14.5 16.9-22.5 10.6-10.7 18.5-15.5 31-18.9 22.3-6.1 81-9.4 126.9-7.1zm102 409.5l40 35-10.7.6c-5.9.4-17.1.7-24.9.8l-14.1.1-28.1-34c-15.5-18.7-28.4-34.7-28.7-35.5-.5-1.1.9-1.5 7.3-1.8 4.3-.2 10.4-.3 13.5-.3l5.6.1 40.1 35zM441.6 538c8.5 19.5 15.4 35.8 15.4 36.2 0 1.1-39.8 1-40.4 0-.3-.5-3-15.9-6.1-34.3-3.1-18.4-5.8-34.2-6.1-35.1-.6-1.9 3.3-2.6 15-2.4l6.9.1 15.3 35.5z"/><path d="M446.3 150c-4 2.4-5.3 4.8-5.3 9.8 0 4.9 2.8 8.6 7.6 10.2 4.4 1.5 8.1.6 11.6-2.7 5.5-5.3 4.1-14.5-2.7-17.7-4.4-2.1-7.3-2-11.2.4zM360 181c-12.2.4-16.2.9-18.7 2.3-3.8 2-11 10.8-11.9 14.3-.4 1.4-.1 16.7.6 34.2 1.2 34.5 1.3 34.7 7.3 37.9 3 1.7 7.2 1.8 61.2 1.4 31.9-.2 58.1-.4 58.3-.6.1-.1-1.1-19.3-2.8-42.6-1.6-23.3-3-43.6-3-45.1V180l-37.7.2c-20.8.1-44.8.4-53.3.8zM463 181.7c-.1 1 2.7 21.5 6.2 45.5l6.3 43.7 45-.5c58.7-.6 62.7-.9 65.8-4 2.7-2.7 4.2-8.2 3.1-11.7-2.5-8.3-23-62.8-24.6-65.5-1.1-1.8-4.1-4.5-6.6-6l-4.7-2.7-45.2-.3c-42.9-.3-45.3-.2-45.3 1.5zM276.8 249.2c-1.4 1.8-4.7 6.4-7.4 10.3-13.1 18.8-46.5 48.3-73.5 65-27.9 17.3-66.8 32-99.1 37.5-4.1.7-6.9 1.7-7.2 2.7-.3.8-.3 3.9 0 6.9l.7 5.5 4.6-.7c23.7-3.2 84.9-17.7 101.7-24 20.7-7.7 51.2-22.8 76.2-37.8l10.2-6.1-.2-31c-.3-27.9-.5-31-2-31.3-.9-.2-2.6 1.1-4 3zM558.1 381.5c-12 3.8-17 17.9-10.2 28.7 7.9 12.5 27.7 11.6 34.1-1.7 3.2-6.6 2.5-15-1.6-20.2-5.5-6.7-14.2-9.4-22.3-6.8zM392.6 384.4c-5.7 2.1-8.7 4.7-11.3 9.6-5.3 9.9-.7 22 9.9 26.5 10.8 4.4 23.8-1.5 26.8-12.3 1.5-5.7 1.2-8.3-1.6-14-4.3-8.7-14.9-13.1-23.8-9.8z"/></svg>